<mxfile host="app.diagrams.net" modified="2023-09-12T08:19:57.421Z" agent="Mozilla/5.0 (Macintosh; Intel Mac OS X 10_15_7) AppleWebKit/537.36 (KHTML, like Gecko) Chrome/116.0.0.0 Safari/537.36 Edg/116.0.1938.76" etag="fAjXKuhlDv9YJ6gXgnX8" version="21.7.4" type="device">
  <diagram name="Page-1" id="h6wG8FU-fvjKSPaqmQTA">
    <mxGraphModel dx="1871" dy="595" grid="1" gridSize="10" guides="1" tooltips="1" connect="1" arrows="1" fold="1" page="1" pageScale="1" pageWidth="850" pageHeight="1100" math="0" shadow="0">
      <root>
        <mxCell id="0" />
        <mxCell id="1" parent="0" />
        <mxCell id="zvBlPBRCSWIezyELfJYd-2" value="&lt;b&gt;RAM&lt;/b&gt;" style="fillColor=none;strokeColor=#5A6C86;dashed=1;verticalAlign=top;fontStyle=0;fontColor=#5A6C86;whiteSpace=wrap;html=1;" vertex="1" parent="1">
          <mxGeometry x="-10" y="80" width="1100" height="660" as="geometry" />
        </mxCell>
        <mxCell id="zvBlPBRCSWIezyELfJYd-3" value="" style="rounded=1;absoluteArcSize=1;html=1;arcSize=10;" vertex="1" parent="1">
          <mxGeometry x="60" y="350" width="100" height="100" as="geometry" />
        </mxCell>
        <mxCell id="zvBlPBRCSWIezyELfJYd-4" value="34f5a" style="html=1;shape=mxgraph.er.anchor;whiteSpace=wrap;" vertex="1" parent="zvBlPBRCSWIezyELfJYd-3">
          <mxGeometry width="50" height="100" as="geometry" />
        </mxCell>
        <mxCell id="zvBlPBRCSWIezyELfJYd-5" value="3" style="rounded=1;absoluteArcSize=1;html=1;arcSize=10;whiteSpace=wrap;points=[];strokeColor=inherit;fillColor=inherit;" vertex="1" parent="zvBlPBRCSWIezyELfJYd-3">
          <mxGeometry x="50" y="5" width="45" height="90" as="geometry" />
        </mxCell>
        <mxCell id="zvBlPBRCSWIezyELfJYd-6" value="int number1" style="text;html=1;align=center;verticalAlign=middle;resizable=0;points=[];autosize=1;strokeColor=none;fillColor=none;fontStyle=1" vertex="1" parent="1">
          <mxGeometry x="75" y="460" width="90" height="30" as="geometry" />
        </mxCell>
        <mxCell id="zvBlPBRCSWIezyELfJYd-7" value="" style="rounded=1;absoluteArcSize=1;html=1;arcSize=10;" vertex="1" parent="1">
          <mxGeometry x="410" y="350" width="100" height="100" as="geometry" />
        </mxCell>
        <mxCell id="zvBlPBRCSWIezyELfJYd-8" value="34f6a" style="html=1;shape=mxgraph.er.anchor;whiteSpace=wrap;" vertex="1" parent="zvBlPBRCSWIezyELfJYd-7">
          <mxGeometry width="50" height="100" as="geometry" />
        </mxCell>
        <mxCell id="zvBlPBRCSWIezyELfJYd-9" value="4" style="rounded=1;absoluteArcSize=1;html=1;arcSize=10;whiteSpace=wrap;points=[];strokeColor=inherit;fillColor=inherit;" vertex="1" parent="zvBlPBRCSWIezyELfJYd-7">
          <mxGeometry x="50" y="5" width="45" height="90" as="geometry" />
        </mxCell>
        <mxCell id="zvBlPBRCSWIezyELfJYd-10" value="int number2" style="text;html=1;align=center;verticalAlign=middle;resizable=0;points=[];autosize=1;strokeColor=none;fillColor=none;fontStyle=1" vertex="1" parent="1">
          <mxGeometry x="425" y="460" width="90" height="30" as="geometry" />
        </mxCell>
        <mxCell id="zvBlPBRCSWIezyELfJYd-11" value="" style="rounded=1;absoluteArcSize=1;html=1;arcSize=10;" vertex="1" parent="1">
          <mxGeometry x="740" y="330" width="100" height="100" as="geometry" />
        </mxCell>
        <mxCell id="zvBlPBRCSWIezyELfJYd-12" value="44f6a" style="html=1;shape=mxgraph.er.anchor;whiteSpace=wrap;" vertex="1" parent="zvBlPBRCSWIezyELfJYd-11">
          <mxGeometry width="50" height="100" as="geometry" />
        </mxCell>
        <mxCell id="zvBlPBRCSWIezyELfJYd-13" value="3.14" style="rounded=1;absoluteArcSize=1;html=1;arcSize=10;whiteSpace=wrap;points=[];strokeColor=inherit;fillColor=inherit;" vertex="1" parent="zvBlPBRCSWIezyELfJYd-11">
          <mxGeometry x="50" y="5" width="45" height="90" as="geometry" />
        </mxCell>
        <mxCell id="zvBlPBRCSWIezyELfJYd-14" value="double pi" style="text;html=1;align=center;verticalAlign=middle;resizable=0;points=[];autosize=1;strokeColor=none;fillColor=none;fontStyle=1" vertex="1" parent="1">
          <mxGeometry x="760" y="440" width="80" height="30" as="geometry" />
        </mxCell>
        <mxCell id="zvBlPBRCSWIezyELfJYd-15" value="" style="rounded=1;absoluteArcSize=1;html=1;arcSize=10;" vertex="1" parent="1">
          <mxGeometry x="580" y="520" width="100" height="100" as="geometry" />
        </mxCell>
        <mxCell id="zvBlPBRCSWIezyELfJYd-16" value="54f6a" style="html=1;shape=mxgraph.er.anchor;whiteSpace=wrap;" vertex="1" parent="zvBlPBRCSWIezyELfJYd-15">
          <mxGeometry width="50" height="100" as="geometry" />
        </mxCell>
        <mxCell id="zvBlPBRCSWIezyELfJYd-17" value="A" style="rounded=1;absoluteArcSize=1;html=1;arcSize=10;whiteSpace=wrap;points=[];strokeColor=inherit;fillColor=inherit;" vertex="1" parent="zvBlPBRCSWIezyELfJYd-15">
          <mxGeometry x="50" y="5" width="45" height="90" as="geometry" />
        </mxCell>
        <mxCell id="zvBlPBRCSWIezyELfJYd-18" value="char charA" style="text;html=1;align=center;verticalAlign=middle;resizable=0;points=[];autosize=1;strokeColor=none;fillColor=none;fontStyle=1" vertex="1" parent="1">
          <mxGeometry x="595" y="630" width="90" height="30" as="geometry" />
        </mxCell>
      </root>
    </mxGraphModel>
  </diagram>
</mxfile>
